G04*
G04 #@! TF.GenerationSoftware,Altium Limited,Altium Designer,25.3.3 (18)*
G04*
G04 Layer_Color=16711935*
%FSLAX25Y25*%
%MOIN*%
G70*
G04*
G04 #@! TF.SameCoordinates,C02AA0BD-ED60-40AF-A0AC-FC32A95D580F*
G04*
G04*
G04 #@! TF.FilePolarity,Negative*
G04*
G01*
G75*
%ADD39C,0.06422*%
%ADD40R,0.06422X0.06422*%
%ADD41O,0.06737X0.12674*%
%ADD42C,0.05131*%
%ADD43C,0.07119*%
%ADD44R,0.07119X0.07119*%
%ADD45C,0.02300*%
%ADD46C,0.02800*%
%ADD47C,0.01600*%
D39*
X56221Y16354D02*
D03*
X66063D02*
D03*
X73937D02*
D03*
D40*
X83780D02*
D03*
D41*
X93032Y7378D02*
D03*
X46968D02*
D03*
D42*
X79055Y6000D02*
D03*
X60945D02*
D03*
D43*
X16000Y29000D02*
D03*
X26000D02*
D03*
X16000Y19000D02*
D03*
X26000D02*
D03*
X16000Y9000D02*
D03*
X8000Y79000D02*
D03*
Y69000D02*
D03*
Y59000D02*
D03*
Y222000D02*
D03*
Y212000D02*
D03*
Y202000D02*
D03*
X118000Y83000D02*
D03*
Y73000D02*
D03*
Y63000D02*
D03*
X7500Y98000D02*
D03*
D44*
X26000Y9000D02*
D03*
X8000Y49000D02*
D03*
Y192000D02*
D03*
X118000Y53000D02*
D03*
X7500Y108000D02*
D03*
D45*
X69000Y105000D02*
D03*
X47000D02*
D03*
X101000Y58000D02*
D03*
Y50000D02*
D03*
X65000Y120000D02*
D03*
X52500Y117500D02*
D03*
X60000Y22500D02*
D03*
X95000Y45000D02*
D03*
X77000Y54000D02*
D03*
X111000Y31000D02*
D03*
X45000Y52000D02*
D03*
X35073Y51073D02*
D03*
X66000Y87000D02*
D03*
X69000Y98000D02*
D03*
X98000Y71000D02*
D03*
X113000Y115000D02*
D03*
X132000Y114000D02*
D03*
X119000Y156000D02*
D03*
X95000Y146000D02*
D03*
X89000Y155000D02*
D03*
X71000Y145000D02*
D03*
X55000Y157000D02*
D03*
X37000Y142000D02*
D03*
X63000Y217000D02*
D03*
X42000Y69000D02*
D03*
X45000D02*
D03*
X67000Y59000D02*
D03*
X20000Y89000D02*
D03*
X35000Y183000D02*
D03*
X79000Y214000D02*
D03*
X15000Y136000D02*
D03*
X66000Y210000D02*
D03*
X57000Y190000D02*
D03*
D46*
X73000Y170000D02*
D03*
X102016Y7984D02*
D03*
D47*
X72500Y53000D02*
D03*
X70500D02*
D03*
Y43000D02*
D03*
X68000D02*
D03*
M02*
