G04*
G04 #@! TF.GenerationSoftware,Altium Limited,Altium Designer,25.3.3 (18)*
G04*
G04 Layer_Physical_Order=1*
G04 Layer_Color=255*
%FSLAX25Y25*%
%MOIN*%
G70*
G04*
G04 #@! TF.SameCoordinates,C02AA0BD-ED60-40AF-A0AC-FC32A95D580F*
G04*
G04*
G04 #@! TF.FilePolarity,Positive*
G04*
G01*
G75*
%ADD16R,0.03937X0.03937*%
%ADD17R,0.03543X0.02559*%
%ADD18R,0.02559X0.03543*%
%ADD19R,0.03543X0.03150*%
%ADD20R,0.03150X0.03543*%
G04:AMPARAMS|DCode=21|XSize=19.29mil|YSize=23.62mil|CornerRadius=1.93mil|HoleSize=0mil|Usage=FLASHONLY|Rotation=180.000|XOffset=0mil|YOffset=0mil|HoleType=Round|Shape=RoundedRectangle|*
%AMROUNDEDRECTD21*
21,1,0.01929,0.01976,0,0,180.0*
21,1,0.01543,0.02362,0,0,180.0*
1,1,0.00386,-0.00772,0.00988*
1,1,0.00386,0.00772,0.00988*
1,1,0.00386,0.00772,-0.00988*
1,1,0.00386,-0.00772,-0.00988*
%
%ADD21ROUNDEDRECTD21*%
%ADD22R,0.03150X0.03150*%
G04:AMPARAMS|DCode=23|XSize=11.02mil|YSize=61.42mil|CornerRadius=2.76mil|HoleSize=0mil|Usage=FLASHONLY|Rotation=270.000|XOffset=0mil|YOffset=0mil|HoleType=Round|Shape=RoundedRectangle|*
%AMROUNDEDRECTD23*
21,1,0.01102,0.05591,0,0,270.0*
21,1,0.00551,0.06142,0,0,270.0*
1,1,0.00551,-0.02795,-0.00276*
1,1,0.00551,-0.02795,0.00276*
1,1,0.00551,0.02795,0.00276*
1,1,0.00551,0.02795,-0.00276*
%
%ADD23ROUNDEDRECTD23*%
G04:AMPARAMS|DCode=24|XSize=11.02mil|YSize=61.42mil|CornerRadius=2.76mil|HoleSize=0mil|Usage=FLASHONLY|Rotation=0.000|XOffset=0mil|YOffset=0mil|HoleType=Round|Shape=RoundedRectangle|*
%AMROUNDEDRECTD24*
21,1,0.01102,0.05591,0,0,0.0*
21,1,0.00551,0.06142,0,0,0.0*
1,1,0.00551,0.00276,-0.02795*
1,1,0.00551,-0.00276,-0.02795*
1,1,0.00551,-0.00276,0.02795*
1,1,0.00551,0.00276,0.02795*
%
%ADD24ROUNDEDRECTD24*%
%ADD25R,0.03465X0.03071*%
G04:AMPARAMS|DCode=26|XSize=39.54mil|YSize=125.28mil|CornerRadius=17.2mil|HoleSize=0mil|Usage=FLASHONLY|Rotation=0.000|XOffset=0mil|YOffset=0mil|HoleType=Round|Shape=RoundedRectangle|*
%AMROUNDEDRECTD26*
21,1,0.03954,0.09088,0,0,0.0*
21,1,0.00514,0.12528,0,0,0.0*
1,1,0.03440,0.00257,-0.04544*
1,1,0.03440,-0.00257,-0.04544*
1,1,0.03440,-0.00257,0.04544*
1,1,0.03440,0.00257,0.04544*
%
%ADD26ROUNDEDRECTD26*%
G04:AMPARAMS|DCode=27|XSize=39.54mil|YSize=34.34mil|CornerRadius=17.17mil|HoleSize=0mil|Usage=FLASHONLY|Rotation=0.000|XOffset=0mil|YOffset=0mil|HoleType=Round|Shape=RoundedRectangle|*
%AMROUNDEDRECTD27*
21,1,0.03954,0.00000,0,0,0.0*
21,1,0.00520,0.03434,0,0,0.0*
1,1,0.03434,0.00260,0.00000*
1,1,0.03434,-0.00260,0.00000*
1,1,0.03434,-0.00260,0.00000*
1,1,0.03434,0.00260,0.00000*
%
%ADD27ROUNDEDRECTD27*%
%ADD28R,0.03954X0.03434*%
%ADD48C,0.01000*%
%ADD49C,0.00700*%
%ADD50C,0.00435*%
%ADD51C,0.01500*%
%ADD52C,0.05622*%
%ADD53R,0.05622X0.05622*%
%ADD54O,0.05937X0.11874*%
%ADD55C,0.04331*%
%ADD56C,0.06319*%
%ADD57R,0.06319X0.06319*%
%ADD58C,0.01500*%
%ADD59C,0.02000*%
%ADD60C,0.00800*%
G36*
X137500Y25171D02*
X136000Y24169D01*
X135472Y24387D01*
Y17000D01*
Y9612D01*
X136000Y9831D01*
X137500Y8829D01*
Y2500D01*
X97886D01*
X97053Y3747D01*
X97327Y4409D01*
Y10346D01*
X96244Y12960D01*
X96952Y14460D01*
X99515D01*
X100228Y13746D01*
Y11866D01*
X102337D01*
X102622Y11484D01*
X101869Y9984D01*
X101187D01*
X100016Y8813D01*
Y7156D01*
X101187Y5984D01*
X102844D01*
X102950Y6090D01*
X106611D01*
X106688Y5905D01*
X108767Y5044D01*
X109288D01*
X111367Y5905D01*
X112228Y7984D01*
X111367Y10064D01*
X109465Y10851D01*
X107254Y13063D01*
X108104Y14334D01*
X108528Y14159D01*
Y17000D01*
Y19841D01*
X107450Y19395D01*
X106601Y20667D01*
X108549Y22615D01*
X108832Y23299D01*
X112004D01*
Y26697D01*
X112294Y26986D01*
X112769Y28134D01*
Y31572D01*
X113425Y32228D01*
X114575D01*
X114925Y32228D01*
X116354D01*
Y35000D01*
Y37772D01*
X114925D01*
X114575Y37772D01*
X113425D01*
X113075Y37772D01*
X108866D01*
Y32228D01*
X108866D01*
X109250Y31725D01*
Y30275D01*
X109293Y30233D01*
X108968Y28732D01*
X106051D01*
Y25310D01*
X105777Y24649D01*
Y24435D01*
X103476Y22134D01*
X100228D01*
Y18248D01*
X87590D01*
Y20165D01*
X79969D01*
Y12543D01*
X87590D01*
Y14460D01*
X89111D01*
X89819Y12960D01*
X88736Y10346D01*
Y4409D01*
X89010Y3747D01*
X88177Y2500D01*
X82153D01*
X81532Y4000D01*
X82221Y4689D01*
Y7311D01*
X80366Y9165D01*
X77744D01*
X75890Y7311D01*
Y4689D01*
X76579Y4000D01*
X75957Y2500D01*
X64043D01*
X63421Y4000D01*
X64110Y4689D01*
Y7311D01*
X62256Y9165D01*
X59634D01*
X57780Y7311D01*
Y4689D01*
X58468Y4000D01*
X57847Y2500D01*
X51823D01*
X50990Y3747D01*
X51264Y4409D01*
Y10346D01*
X50006Y13384D01*
X46968Y14642D01*
X43931Y13384D01*
X42673Y10346D01*
Y4409D01*
X42947Y3747D01*
X42114Y2500D01*
X2500D01*
Y16522D01*
X3228Y17720D01*
X4000Y17720D01*
X6662D01*
X7492Y17376D01*
X11841D01*
Y17277D01*
X14277Y14841D01*
X17723D01*
X20159Y17277D01*
Y20723D01*
X17723Y23159D01*
X14277D01*
X11841Y20723D01*
Y20624D01*
X9241D01*
X8772Y22124D01*
Y23429D01*
X8772Y23779D01*
Y26370D01*
X8803Y26445D01*
X10455Y28097D01*
X11841Y27523D01*
Y27277D01*
X14277Y24840D01*
X17723D01*
X20159Y27277D01*
Y30723D01*
X17723Y33159D01*
X17477D01*
X16903Y34545D01*
X30033Y47675D01*
X30033Y47675D01*
X30461Y48709D01*
X30461Y48709D01*
Y59871D01*
X31555Y60227D01*
X32866Y59309D01*
Y54228D01*
X33684D01*
Y52159D01*
X33323Y51798D01*
Y50348D01*
X34348Y49323D01*
X35798D01*
X36823Y50348D01*
Y51798D01*
X36680Y51940D01*
Y53483D01*
X37425Y54228D01*
X38575D01*
X38925Y54228D01*
X40354D01*
Y57000D01*
X41354D01*
Y54228D01*
X42268D01*
X42599Y54007D01*
X43250Y52725D01*
Y51275D01*
X44275Y50250D01*
X45725D01*
X46750Y51275D01*
Y51453D01*
X48250Y52455D01*
X48291Y52438D01*
X51294D01*
X51868Y51052D01*
X34967Y34151D01*
X34539Y33118D01*
X34539Y33118D01*
Y29134D01*
X33228D01*
Y24925D01*
X33228Y24575D01*
Y23425D01*
X33228Y23075D01*
Y21162D01*
X32690Y20624D01*
X30159D01*
Y20723D01*
X27723Y23159D01*
X24277D01*
X21840Y20723D01*
Y17277D01*
X24277Y14841D01*
X27723D01*
X30159Y17277D01*
Y17376D01*
X33362D01*
X34510Y17852D01*
X35524Y18866D01*
X38772D01*
Y23075D01*
X38772Y23425D01*
Y24575D01*
X38772Y24925D01*
Y29134D01*
X37461D01*
Y32513D01*
X53674Y48726D01*
X55060Y48152D01*
Y45669D01*
X55465Y44693D01*
X56441Y44289D01*
X56992D01*
X57701Y44582D01*
X58410Y44289D01*
X58961D01*
X59669Y44582D01*
X60378Y44289D01*
X60929D01*
X61638Y44582D01*
X62347Y44289D01*
X62898D01*
X63606Y44582D01*
X64315Y44289D01*
X64866D01*
X65575Y44582D01*
X66600Y43580D01*
Y42420D01*
X67420Y41600D01*
X67527D01*
X67715Y41146D01*
Y38155D01*
X67685Y38082D01*
Y36988D01*
X63228D01*
Y36318D01*
X60772D01*
Y37279D01*
X55228D01*
Y33071D01*
X55228Y32721D01*
Y31571D01*
X55228Y31220D01*
Y27012D01*
X56376D01*
Y24500D01*
X56852Y23352D01*
X58250Y21954D01*
Y21775D01*
X58756Y21269D01*
X57738Y20165D01*
X57032Y20165D01*
X54642D01*
X52409Y17933D01*
Y14776D01*
X54642Y12543D01*
X57799D01*
X60031Y14776D01*
Y17933D01*
X58824Y19140D01*
X58318Y19647D01*
X59336Y20750D01*
X60042Y20750D01*
X60725D01*
X61750Y21775D01*
Y23225D01*
X60725Y24250D01*
X60546D01*
X59624Y25172D01*
Y27012D01*
X60772D01*
Y31220D01*
X60772Y31571D01*
Y32721D01*
X62018Y33682D01*
X62168D01*
X63228Y32622D01*
Y31280D01*
X63228Y30929D01*
Y26720D01*
X67745D01*
Y22992D01*
X68131Y22061D01*
X68215Y21977D01*
Y20403D01*
X67642Y20165D01*
X64484D01*
X62252Y17933D01*
Y14776D01*
X64484Y12543D01*
X67642D01*
X68992Y13893D01*
X70000Y14678D01*
X71008Y13893D01*
X72358Y12543D01*
X75516D01*
X77748Y14776D01*
Y17933D01*
X75516Y20165D01*
X72358D01*
X71785Y20403D01*
Y22910D01*
X71399Y23841D01*
X71315Y23925D01*
Y26866D01*
X75772D01*
Y31075D01*
X75772Y31425D01*
Y32575D01*
X75772Y32925D01*
Y37040D01*
X76898Y38035D01*
X78967Y35967D01*
X78967Y35967D01*
X80000Y35539D01*
X80000Y35539D01*
X102000D01*
X102000Y35539D01*
X103033Y35967D01*
X107605Y40539D01*
X115228D01*
X115228Y40539D01*
X116261Y40967D01*
X123543Y48248D01*
X123543Y48248D01*
X123971Y49281D01*
Y58491D01*
X123971Y58491D01*
X123543Y59524D01*
X123543Y59524D01*
X121974Y61092D01*
X122159Y61277D01*
Y64723D01*
X119723Y67159D01*
X116277D01*
X113841Y64723D01*
Y61277D01*
X116277Y58841D01*
X118726D01*
X118847Y58659D01*
X118046Y57160D01*
X113841D01*
Y55556D01*
X103152D01*
X102531Y57056D01*
X102750Y57275D01*
Y57500D01*
X99250D01*
Y57275D01*
X99469Y57056D01*
X98848Y55556D01*
X88331D01*
X88176Y55787D01*
Y56339D01*
X87882Y57047D01*
X88176Y57756D01*
Y58307D01*
X87882Y59016D01*
X88176Y59724D01*
Y60276D01*
X87882Y60984D01*
X88176Y61693D01*
Y62244D01*
X87882Y62953D01*
X88176Y63661D01*
Y64213D01*
X87882Y64921D01*
X88176Y65630D01*
Y66181D01*
X87882Y66890D01*
X88176Y67598D01*
Y68150D01*
X87882Y68858D01*
X88176Y69567D01*
Y70118D01*
X88234Y70294D01*
X89837Y70918D01*
X90228Y70595D01*
Y68866D01*
X95772D01*
Y68866D01*
X97272Y69253D01*
X97275Y69250D01*
X98725D01*
X99750Y70275D01*
Y71725D01*
X98725Y72750D01*
X97275D01*
X97272Y72746D01*
X97005Y72782D01*
X95772Y73425D01*
Y74575D01*
X95772D01*
Y76354D01*
X90228D01*
X90228Y75477D01*
X89874Y75241D01*
X88331D01*
X88326Y75248D01*
X87249D01*
X86795Y75436D01*
X81205D01*
X80751Y75248D01*
X79917D01*
X80118Y74764D01*
X79824Y74055D01*
Y73504D01*
X80118Y72795D01*
X79824Y72087D01*
Y71535D01*
X80118Y70827D01*
X79824Y70118D01*
Y69567D01*
X79669Y69335D01*
X70756D01*
X70756Y69335D01*
X69723Y68907D01*
X69723Y68907D01*
X57352Y56536D01*
X55588Y56732D01*
X55109Y57386D01*
X55263Y57756D01*
Y58307D01*
X54969Y59016D01*
X55263Y59724D01*
Y60276D01*
X54969Y60984D01*
X55263Y61693D01*
Y62244D01*
X54969Y62953D01*
X55263Y63661D01*
Y64213D01*
X54969Y64921D01*
X55263Y65630D01*
Y66181D01*
X54969Y66890D01*
X55263Y67598D01*
Y68150D01*
X54969Y68858D01*
X55263Y69567D01*
Y70118D01*
X54969Y70827D01*
X55263Y71535D01*
Y72087D01*
X54969Y72795D01*
X55192Y73334D01*
X55861Y74161D01*
X55998Y74312D01*
X56648Y74539D01*
X64582D01*
X64582Y74539D01*
X65616Y74967D01*
X67525Y76876D01*
X67747Y77411D01*
X68252Y77202D01*
X68803D01*
X69512Y77495D01*
X70221Y77202D01*
X70772D01*
X71480Y77495D01*
X72189Y77202D01*
X72740D01*
X73449Y77495D01*
X74158Y77202D01*
X74709D01*
X75417Y77495D01*
X76126Y77202D01*
X76677D01*
X77386Y77495D01*
X78095Y77202D01*
X78646D01*
X78697Y77223D01*
X79673Y76248D01*
X83500D01*
Y77404D01*
X81205D01*
X81153Y77383D01*
X80005Y78531D01*
X80026Y78583D01*
Y84173D01*
X79622Y85150D01*
X79592Y85302D01*
X80667Y86539D01*
X95047D01*
X95047Y86539D01*
X96080Y86967D01*
X117039Y107926D01*
X118425Y107352D01*
Y105472D01*
X122831D01*
X123575Y105472D01*
Y105472D01*
X124228Y105720D01*
X124228Y105720D01*
X129772D01*
Y109929D01*
X129772Y110280D01*
Y111429D01*
X130428Y112085D01*
X131709D01*
X132107Y112250D01*
X132725D01*
X133750Y113275D01*
Y114725D01*
X132725Y115750D01*
X131275D01*
X131272Y115746D01*
X129772Y115988D01*
Y115988D01*
X124851D01*
X123575Y116528D01*
X122952Y116528D01*
X118425D01*
Y113444D01*
X111272Y106291D01*
X109772Y106912D01*
Y109929D01*
X109772Y110280D01*
Y111429D01*
X110428Y112085D01*
X111709D01*
X112857Y112561D01*
X113546Y113250D01*
X113725D01*
X114750Y114275D01*
Y115725D01*
X113725Y116750D01*
X112275D01*
X111272Y115746D01*
X110335Y115766D01*
X109772Y115901D01*
Y115988D01*
X104832Y115988D01*
X103575Y116575D01*
X102971Y116575D01*
X101500D01*
Y114000D01*
X101000D01*
Y113500D01*
X98425D01*
Y112169D01*
X98425Y111047D01*
X98425Y109925D01*
Y105520D01*
X102812D01*
X103575Y105520D01*
Y105520D01*
X104228Y105720D01*
X104228Y105720D01*
X108580D01*
X109201Y104220D01*
X94442Y89461D01*
X79622D01*
X78589Y89033D01*
X78589Y89033D01*
X75436Y85880D01*
X75214Y85345D01*
X74709Y85554D01*
X74158D01*
X73449Y85260D01*
X72830Y85517D01*
X72570Y85953D01*
X72124Y87000D01*
Y90418D01*
X73241Y91535D01*
X78020D01*
Y94071D01*
X78520D01*
Y94571D01*
X81252D01*
Y95394D01*
Y100465D01*
X70748D01*
Y100465D01*
X69725Y99750D01*
X68275D01*
X67915Y99390D01*
X65567D01*
X65567Y99390D01*
X64948Y99134D01*
X61228D01*
Y94575D01*
X61228D01*
Y93425D01*
X61228D01*
Y91646D01*
X64000D01*
Y90646D01*
X61228D01*
Y90584D01*
X60780Y90186D01*
X59775Y89751D01*
X59624Y89852D01*
Y120000D01*
X59148Y121148D01*
X49624Y130673D01*
Y136000D01*
X49148Y137148D01*
X43624Y142673D01*
Y145159D01*
X44189Y146425D01*
X49732D01*
Y151575D01*
X48584D01*
Y156454D01*
X48109Y157602D01*
X47710Y158000D01*
X48109Y158398D01*
X48584Y159546D01*
Y163425D01*
X49732D01*
Y168575D01*
X44189D01*
Y163425D01*
X45337D01*
Y160935D01*
X43837Y160313D01*
X41274Y162876D01*
X41134Y162934D01*
Y165772D01*
X36575D01*
X36575Y165772D01*
X35425D01*
Y165772D01*
X35075Y165772D01*
X30866D01*
X29624Y166393D01*
Y169327D01*
X42673Y182376D01*
X63209D01*
X64040Y182721D01*
X64980D01*
X65893Y183099D01*
X66107Y183099D01*
X67020Y182721D01*
X68563D01*
X69476Y183099D01*
X69591Y183376D01*
X82000D01*
X83148Y183852D01*
X86673Y187376D01*
X103472D01*
X117148Y173701D01*
X116574Y172315D01*
X115165D01*
Y171624D01*
X88331D01*
Y172315D01*
X82787D01*
Y171624D01*
X74205D01*
X73828Y172000D01*
X72172D01*
X71795Y171624D01*
X58000D01*
Y172315D01*
X52457D01*
Y167165D01*
X58000D01*
Y168376D01*
X71795D01*
X72172Y168000D01*
X73828D01*
X74520Y166786D01*
Y166492D01*
X73837Y165984D01*
X72425Y165772D01*
Y165772D01*
X68217D01*
X67866Y165772D01*
X66716D01*
X66366Y165772D01*
X62157D01*
Y160228D01*
X62157Y160228D01*
X62157D01*
X61300Y159084D01*
X61000Y158784D01*
X58000Y161784D01*
Y164835D01*
X52457D01*
Y159685D01*
X53089D01*
X53710Y158185D01*
X53250Y157725D01*
Y156275D01*
X52457Y155315D01*
X52457D01*
Y150165D01*
X55654D01*
X56237Y148814D01*
X55437Y147835D01*
X52457D01*
Y142685D01*
X58000D01*
X58539Y141408D01*
Y136969D01*
X57032D01*
Y131032D01*
X62968D01*
Y136969D01*
X61461D01*
Y149426D01*
X61756Y149721D01*
X62148Y149883D01*
X62624Y151031D01*
Y152058D01*
X64124Y152680D01*
X64228Y152575D01*
Y151425D01*
X64228Y151075D01*
Y146866D01*
X67705D01*
X69250Y145321D01*
Y144275D01*
X70275Y143250D01*
X71725D01*
X72750Y144275D01*
Y145725D01*
X72196Y146279D01*
X72033Y146671D01*
X72033Y146671D01*
X69772Y148933D01*
Y151075D01*
X69772Y151425D01*
Y152575D01*
X69772Y152925D01*
Y157134D01*
X66063D01*
X65442Y158634D01*
X65585Y158777D01*
X66061Y159925D01*
X66364Y160228D01*
X67866Y160228D01*
X68217Y160228D01*
X72425D01*
X72471Y158747D01*
Y152134D01*
X72946Y150986D01*
X74457Y149476D01*
Y146425D01*
X80000D01*
Y151575D01*
X76950D01*
X75718Y152806D01*
Y162328D01*
X76816Y163425D01*
X80063D01*
Y168376D01*
X82787D01*
Y167165D01*
X88331D01*
Y168376D01*
X106898D01*
Y165721D01*
X105800Y164624D01*
X104134D01*
Y165772D01*
X99925D01*
X99575Y165772D01*
X98425D01*
X98075Y165772D01*
X93866D01*
Y162524D01*
X91328Y159986D01*
X90326D01*
X88331Y161981D01*
Y164835D01*
X82787D01*
Y159685D01*
X86035D01*
X87706Y158014D01*
X87831Y157735D01*
X87833Y157718D01*
X87376Y156222D01*
X86919Y156033D01*
Y156033D01*
X86201Y155315D01*
X82724D01*
Y150165D01*
X85921D01*
X86505Y148814D01*
X85705Y147835D01*
X82724D01*
Y142685D01*
X83376D01*
Y140673D01*
X64454Y121750D01*
X64275D01*
X63250Y120725D01*
Y119275D01*
X64275Y118250D01*
X65725D01*
X66750Y119275D01*
Y119454D01*
X80646Y133350D01*
X82032Y132775D01*
Y131032D01*
X87968D01*
Y136969D01*
X86624D01*
Y140000D01*
Y142685D01*
X88268D01*
Y145735D01*
X93148Y150616D01*
X93624Y151764D01*
Y153376D01*
X96049D01*
X96850Y152575D01*
Y151425D01*
X96850Y151075D01*
Y148933D01*
X95668Y147750D01*
X94275D01*
X93250Y146725D01*
Y145275D01*
X94275Y144250D01*
X95725D01*
X96034Y144560D01*
X97018Y144967D01*
X98917Y146866D01*
X102394D01*
Y151075D01*
X102394Y151425D01*
Y152575D01*
X102394Y152925D01*
Y157134D01*
X96850D01*
Y156624D01*
X94671D01*
X94058Y158124D01*
X96162Y160228D01*
X98075D01*
X98425Y160228D01*
X99575D01*
X99925Y160228D01*
X104134D01*
X104849Y159025D01*
Y152197D01*
X105324Y151049D01*
X106898Y149476D01*
Y146425D01*
X112441D01*
Y151575D01*
X109391D01*
X108096Y152869D01*
Y162328D01*
X109194Y163425D01*
X112441D01*
Y168376D01*
X115165D01*
Y167165D01*
X120709D01*
Y168180D01*
X122095Y168754D01*
X124376Y166472D01*
Y165673D01*
X122587Y163883D01*
X120709D01*
Y164835D01*
X115165D01*
Y159685D01*
X120709D01*
Y160636D01*
X123260D01*
X124376Y159890D01*
Y153995D01*
X122095Y151713D01*
X120709Y152287D01*
Y155234D01*
X120750Y155275D01*
Y156725D01*
X119725Y157750D01*
X118275D01*
X117250Y156725D01*
Y155315D01*
X115165D01*
Y150165D01*
X118362D01*
X118946Y148814D01*
X118146Y147835D01*
X115165D01*
Y142685D01*
X120709D01*
Y145735D01*
X127148Y152175D01*
X127624Y153323D01*
Y165000D01*
Y167145D01*
X127148Y168293D01*
X105293Y190148D01*
X104145Y190624D01*
X99673D01*
X96624Y193673D01*
Y201031D01*
X97969D01*
Y206968D01*
X92032D01*
Y201031D01*
X93376D01*
Y193000D01*
X93739Y192124D01*
X93120Y190624D01*
X86673D01*
X84067Y193229D01*
X83476Y194599D01*
X83854Y195512D01*
Y197488D01*
X83476Y198401D01*
X82563Y198779D01*
X81020D01*
X80107Y198401D01*
X79893Y198401D01*
X78980Y198779D01*
X77437D01*
X76524Y198401D01*
X76146Y197488D01*
Y196517D01*
X74816Y195187D01*
X72315D01*
Y196335D01*
X67165D01*
Y190791D01*
X72315D01*
Y191939D01*
X75488D01*
X76636Y192415D01*
X78442Y194221D01*
X78980D01*
X80168Y193209D01*
X80643Y192061D01*
X83704Y189000D01*
X81327Y186624D01*
X69591D01*
X69476Y186901D01*
X68563Y187279D01*
X67020D01*
X66107Y186901D01*
X65893Y186901D01*
X64980Y187279D01*
X63437D01*
X62524Y186901D01*
X62146Y185988D01*
Y185624D01*
X43624D01*
Y188402D01*
X49442Y194221D01*
X49980D01*
X50893Y194599D01*
X51107Y194599D01*
X52020Y194221D01*
X53563D01*
X54476Y194599D01*
X54854Y195512D01*
Y196267D01*
X58795Y200207D01*
X63425D01*
Y199059D01*
X68575D01*
Y204602D01*
X63425D01*
Y203454D01*
X58122D01*
X56974Y202979D01*
X52775Y198779D01*
X52020D01*
X51107Y198401D01*
X50893Y198401D01*
X49980Y198779D01*
X48437D01*
X47524Y198401D01*
X47146Y197488D01*
Y196517D01*
X40852Y190223D01*
X40376Y189075D01*
Y184672D01*
X38250Y182546D01*
X36750Y183167D01*
Y183725D01*
X35725Y184750D01*
X34275D01*
X33250Y183725D01*
Y183546D01*
X26796Y177092D01*
X7468D01*
X7170Y176969D01*
X3032Y176969D01*
X2500Y178248D01*
Y187456D01*
X3841Y187840D01*
X4000Y187841D01*
X12159D01*
Y196159D01*
X4000D01*
X3841Y196160D01*
X2500Y196544D01*
Y199892D01*
X4000Y200118D01*
X6277Y197841D01*
X9723D01*
X12159Y200277D01*
Y203723D01*
X9723Y206159D01*
X6277D01*
X4000Y203882D01*
X2500Y204108D01*
Y209892D01*
X4000Y210118D01*
X6277Y207840D01*
X9723D01*
X12159Y210277D01*
Y213723D01*
X9723Y216160D01*
X6277D01*
X4000Y213882D01*
X2500Y214108D01*
Y219892D01*
X4000Y220118D01*
X6277Y217841D01*
X9723D01*
X12159Y220277D01*
Y223723D01*
X9723Y226160D01*
X6277D01*
X4000Y223882D01*
X2500Y224108D01*
Y247500D01*
X137500D01*
Y25171D01*
D02*
G37*
G36*
X27539Y173727D02*
X28248Y172544D01*
X26852Y171148D01*
X26376Y170000D01*
Y160000D01*
X26852Y158852D01*
X28051Y157653D01*
X29199Y157177D01*
X31746D01*
X33228Y157134D01*
Y152925D01*
X33228Y152575D01*
Y151425D01*
X33228Y151075D01*
Y146866D01*
X34539D01*
Y143000D01*
X34539Y143000D01*
X34967Y141967D01*
X35250Y141683D01*
Y141275D01*
X36275Y140250D01*
X37725D01*
X38750Y141275D01*
Y142725D01*
X37725Y143750D01*
X37461D01*
Y146866D01*
X38772D01*
Y150727D01*
X39529Y151255D01*
X40262Y151428D01*
X40272Y151428D01*
X40376Y151341D01*
Y142000D01*
X40852Y140852D01*
X44580Y137124D01*
X43959Y135624D01*
X39968D01*
Y136969D01*
X34032D01*
Y131032D01*
X39968D01*
Y132376D01*
X46000D01*
X46376Y132125D01*
Y130000D01*
X46852Y128852D01*
X56376Y119327D01*
Y88000D01*
X56117Y87611D01*
X54455D01*
X53961Y88105D01*
Y116486D01*
X54250Y116775D01*
Y118225D01*
X53225Y119250D01*
X51775D01*
X50750Y118225D01*
Y116775D01*
X51039Y116486D01*
Y87500D01*
X51039Y87500D01*
X51335Y86784D01*
X50689Y85285D01*
X25782D01*
X21750Y89316D01*
Y89725D01*
X20725Y90750D01*
X19275D01*
X18987Y90869D01*
X18749Y92553D01*
X18925Y92728D01*
X20075D01*
X20425Y92728D01*
X21854D01*
Y95500D01*
Y98272D01*
X20425D01*
X19566Y98272D01*
X18612Y99642D01*
X18925Y100228D01*
X20075D01*
Y100228D01*
X20425Y100228D01*
X24634D01*
Y105772D01*
X22141D01*
X18880Y109033D01*
X17846Y109461D01*
X17846Y109461D01*
X11659D01*
Y112159D01*
X4000D01*
X3341Y112160D01*
X2500Y113311D01*
Y137752D01*
X3032Y139032D01*
X4000Y139032D01*
X6672D01*
X10852Y134852D01*
X12000Y134376D01*
X14149D01*
X14275Y134250D01*
X15725D01*
X16750Y135275D01*
Y136725D01*
X15725Y137750D01*
X14275D01*
X14149Y137624D01*
X12673D01*
X8969Y141328D01*
Y144968D01*
X4000D01*
X3032Y144968D01*
X2500Y146248D01*
Y153752D01*
X3032Y155032D01*
X4000Y155032D01*
X5500D01*
Y158000D01*
Y160968D01*
X4000D01*
X3032Y160968D01*
X2500Y162248D01*
Y169752D01*
X3032Y171031D01*
X4000Y171031D01*
X8969D01*
Y173845D01*
X27428D01*
X27539Y173727D01*
D02*
G37*
G36*
X5777Y93840D02*
X9223D01*
X10013Y94630D01*
X10291Y94352D01*
X11439Y93876D01*
X14366D01*
Y92728D01*
X15022D01*
Y87354D01*
X15498Y86206D01*
X22852Y78852D01*
X23196Y78709D01*
X22898Y77209D01*
X14748D01*
X14748Y77209D01*
X13715Y76781D01*
X12312Y77208D01*
X12159Y77347D01*
Y80723D01*
X9723Y83160D01*
X6277D01*
X4000Y80882D01*
X2500Y81108D01*
Y94996D01*
X4000Y95618D01*
X5777Y93840D01*
D02*
G37*
G36*
X113841Y48841D02*
X118042D01*
X118616Y47455D01*
X114623Y43461D01*
X107000D01*
X107000Y43461D01*
X105967Y43033D01*
X105967Y43033D01*
X101395Y38461D01*
X94316D01*
X93134Y39228D01*
Y42310D01*
X93145Y42320D01*
X93309Y42388D01*
X94145Y43224D01*
X94227Y43298D01*
X94275Y43250D01*
X95725D01*
X96750Y44275D01*
Y45725D01*
X95725Y46750D01*
X94980D01*
X94213Y48197D01*
X94476Y48539D01*
X99986D01*
X100275Y48250D01*
X100500D01*
Y50000D01*
X101000D01*
Y50500D01*
X102750D01*
Y50725D01*
X102342Y51133D01*
X102963Y52633D01*
X113841D01*
Y48841D01*
D02*
G37*
G36*
X40250Y69725D02*
Y68275D01*
X41275Y67250D01*
X41684D01*
X44087Y64847D01*
X43512Y63461D01*
X29410D01*
X28377Y63033D01*
X28377Y63033D01*
X27967Y62623D01*
X27539Y61590D01*
X27539Y61590D01*
Y49314D01*
X6388Y28164D01*
X6316Y27988D01*
X3228Y27988D01*
X2500Y29186D01*
Y44456D01*
X3841Y44840D01*
X4000Y44841D01*
X12159D01*
Y51093D01*
X31416Y70350D01*
X39991D01*
X40250Y69725D01*
D02*
G37*
%LPC*%
G36*
X63725Y218750D02*
X62275D01*
X62050Y218524D01*
X60772Y217988D01*
X60772Y217988D01*
X55228D01*
Y213779D01*
X55228Y213429D01*
Y212280D01*
X54572Y211624D01*
X48968D01*
Y214968D01*
X43031D01*
Y209032D01*
X46672D01*
X46852Y208852D01*
X48000Y208376D01*
X55228D01*
Y207720D01*
X60772D01*
Y208376D01*
X65149D01*
X65275Y208250D01*
X66725D01*
X66924Y208449D01*
X70228D01*
Y207866D01*
X75772D01*
Y212075D01*
X76080Y212509D01*
X77884Y212641D01*
X78275Y212250D01*
X79725D01*
X80750Y213275D01*
Y214725D01*
X79725Y215750D01*
X79546D01*
X78294Y217002D01*
X77146Y217478D01*
X75772D01*
Y218134D01*
X70228D01*
Y213925D01*
X70228Y213575D01*
Y212425D01*
X68885Y211696D01*
X66778D01*
X66725Y211750D01*
X65275D01*
X65149Y211624D01*
X61428D01*
X61006Y212046D01*
X61044Y213667D01*
X61709Y214247D01*
X62742Y214675D01*
X63317Y215250D01*
X63725D01*
X64750Y216275D01*
Y217725D01*
X63725Y218750D01*
D02*
G37*
G36*
X64835Y196335D02*
X59685D01*
Y193087D01*
X58221Y191624D01*
X57851D01*
X57725Y191750D01*
X56275D01*
X55250Y190725D01*
Y189275D01*
X56275Y188250D01*
X57725D01*
X57851Y188376D01*
X58894D01*
X60042Y188852D01*
X61981Y190791D01*
X64835D01*
Y196335D01*
D02*
G37*
G36*
X100500Y116575D02*
X98425D01*
Y114500D01*
X100500D01*
Y116575D01*
D02*
G37*
G36*
X69725Y106750D02*
X69500D01*
Y105500D01*
X70750D01*
Y105725D01*
X69725Y106750D01*
D02*
G37*
G36*
X68500D02*
X68275D01*
X67250Y105725D01*
Y105500D01*
X68500D01*
Y106750D01*
D02*
G37*
G36*
X70750Y104500D02*
X69500D01*
Y103250D01*
X69725D01*
X70750Y104275D01*
Y104500D01*
D02*
G37*
G36*
X68500D02*
X67250D01*
Y104275D01*
X68275Y103250D01*
X68500D01*
Y104500D01*
D02*
G37*
G36*
X81252Y93571D02*
X79020D01*
Y91535D01*
X81252D01*
Y93571D01*
D02*
G37*
G36*
X119723Y87160D02*
X118500D01*
Y83500D01*
X122159D01*
Y84723D01*
X119723Y87160D01*
D02*
G37*
G36*
X117500D02*
X116277D01*
X113841Y84723D01*
Y83500D01*
X117500D01*
Y87160D01*
D02*
G37*
G36*
X110772Y81134D02*
X108500D01*
Y79354D01*
X110772D01*
Y81134D01*
D02*
G37*
G36*
X107500D02*
X105228D01*
Y79354D01*
X107500D01*
Y81134D01*
D02*
G37*
G36*
X122159Y82500D02*
X118500D01*
Y78841D01*
X119723D01*
X122159Y81277D01*
Y82500D01*
D02*
G37*
G36*
X117500D02*
X113841D01*
Y81277D01*
X116277Y78841D01*
X117500D01*
Y82500D01*
D02*
G37*
G36*
X95772Y79134D02*
X93500D01*
Y77354D01*
X95772D01*
Y79134D01*
D02*
G37*
G36*
X92500D02*
X90228D01*
Y77354D01*
X92500D01*
Y79134D01*
D02*
G37*
G36*
X86795Y77404D02*
X84500D01*
Y76248D01*
X88083D01*
X87772Y77000D01*
X86795Y77404D01*
D02*
G37*
G36*
X110772Y78354D02*
X108000D01*
X105228D01*
Y76925D01*
X105228Y76575D01*
Y75425D01*
X105228Y75075D01*
Y70866D01*
X110772D01*
Y71539D01*
X113841D01*
Y71277D01*
X116277Y68840D01*
X119723D01*
X122159Y71277D01*
Y74723D01*
X119723Y77160D01*
X116277D01*
X113841Y74723D01*
Y74461D01*
X111736D01*
X110772Y75425D01*
Y76575D01*
X110772Y76925D01*
Y78354D01*
D02*
G37*
G36*
X101725Y59750D02*
X101500D01*
Y58500D01*
X102750D01*
Y58725D01*
X101725Y59750D01*
D02*
G37*
G36*
X100500D02*
X100275D01*
X99286Y58760D01*
X99250Y58725D01*
Y58500D01*
X100500D01*
Y59750D01*
D02*
G37*
G36*
X117354Y37772D02*
Y35500D01*
X119134D01*
Y37772D01*
X117354D01*
D02*
G37*
G36*
X119134Y34500D02*
X117354D01*
Y32228D01*
X119134D01*
Y34500D01*
D02*
G37*
G36*
X27723Y33159D02*
X24277D01*
X21840Y30723D01*
Y27277D01*
X24277Y24840D01*
X27723D01*
X30159Y27277D01*
Y30723D01*
X27723Y33159D01*
D02*
G37*
G36*
X134472Y24387D02*
X132634Y23626D01*
X131771Y21544D01*
Y17500D01*
X134472D01*
Y24387D01*
D02*
G37*
G36*
X109528Y19841D02*
Y17500D01*
X112021D01*
X111367Y19079D01*
X109528Y19841D01*
D02*
G37*
G36*
X112021Y16500D02*
X109528D01*
Y14159D01*
X111367Y14921D01*
X112021Y16500D01*
D02*
G37*
G36*
X134472D02*
X131771D01*
Y12456D01*
X132634Y10374D01*
X134472Y9612D01*
Y16500D01*
D02*
G37*
G36*
X30159Y13160D02*
X26500D01*
Y9500D01*
X30159D01*
Y13160D01*
D02*
G37*
G36*
X17723D02*
X16500D01*
Y9500D01*
X20159D01*
Y10723D01*
X17723Y13160D01*
D02*
G37*
G36*
X25500D02*
X21840D01*
Y9500D01*
X25500D01*
Y13160D01*
D02*
G37*
G36*
X15500D02*
X14277D01*
X11841Y10723D01*
Y9500D01*
X15500D01*
Y13160D01*
D02*
G37*
G36*
X30159Y8500D02*
X26500D01*
Y4841D01*
X30159D01*
Y8500D01*
D02*
G37*
G36*
X25500D02*
X21840D01*
Y4841D01*
X25500D01*
Y8500D01*
D02*
G37*
G36*
X20159D02*
X16500D01*
Y4841D01*
X17723D01*
X20159Y7277D01*
Y8500D01*
D02*
G37*
G36*
X15500D02*
X11841D01*
Y7277D01*
X14277Y4841D01*
X15500D01*
Y8500D01*
D02*
G37*
G36*
X6500Y160968D02*
Y158500D01*
X8969D01*
Y160968D01*
X6500D01*
D02*
G37*
G36*
X8969Y157500D02*
X6500D01*
Y155032D01*
X8969D01*
Y157500D01*
D02*
G37*
G36*
X47725Y106750D02*
X47500D01*
Y105500D01*
X48750D01*
Y105725D01*
X47725Y106750D01*
D02*
G37*
G36*
X46500D02*
X46275D01*
X45250Y105725D01*
Y105316D01*
X36895Y96961D01*
X24634D01*
Y98272D01*
X22854D01*
Y95500D01*
Y92728D01*
X24634D01*
Y94039D01*
X37500D01*
X37500Y94039D01*
X38533Y94467D01*
X47317Y103250D01*
X47725D01*
X48750Y104275D01*
Y104500D01*
X47000D01*
Y105000D01*
X46500D01*
Y106750D01*
D02*
G37*
G36*
X102750Y49500D02*
X101500D01*
Y48250D01*
X101725D01*
X102715Y49240D01*
X102750Y49275D01*
Y49500D01*
D02*
G37*
%LPD*%
D16*
X85000Y134000D02*
D03*
X46000Y212000D02*
D03*
X95000Y204000D02*
D03*
X60000Y134000D02*
D03*
X37000D02*
D03*
X6000Y142000D02*
D03*
Y158000D02*
D03*
Y174000D02*
D03*
D17*
X66000Y34709D02*
D03*
X73000Y34854D02*
D03*
Y29146D02*
D03*
X66000Y29000D02*
D03*
X36000Y149146D02*
D03*
Y154854D02*
D03*
X73000Y210146D02*
D03*
Y215854D02*
D03*
X58000Y215709D02*
D03*
Y210000D02*
D03*
X99622Y149146D02*
D03*
Y154854D02*
D03*
X67000Y149146D02*
D03*
Y154854D02*
D03*
X103000Y19854D02*
D03*
Y14146D02*
D03*
X108000Y73146D02*
D03*
Y78854D02*
D03*
X64000Y96854D02*
D03*
Y91146D02*
D03*
X93000Y71146D02*
D03*
Y76854D02*
D03*
X36000Y26854D02*
D03*
Y21146D02*
D03*
X6000Y20000D02*
D03*
Y25709D02*
D03*
X107000Y108000D02*
D03*
Y113709D02*
D03*
X127000Y108000D02*
D03*
Y113709D02*
D03*
X58000Y35000D02*
D03*
Y29291D02*
D03*
D18*
X38854Y163000D02*
D03*
X33146D02*
D03*
X101854D02*
D03*
X96146D02*
D03*
X70146D02*
D03*
X64437D02*
D03*
X111146Y35000D02*
D03*
X116854D02*
D03*
X22354Y103000D02*
D03*
X16646D02*
D03*
X35146Y57000D02*
D03*
X40854D02*
D03*
X90854Y42000D02*
D03*
X85146D02*
D03*
X16646Y95500D02*
D03*
X22354D02*
D03*
D19*
X117937Y162260D02*
D03*
Y169740D02*
D03*
X109669Y166000D02*
D03*
X85559Y162260D02*
D03*
Y169740D02*
D03*
X77291Y166000D02*
D03*
X55228Y162260D02*
D03*
Y169740D02*
D03*
X46961Y166000D02*
D03*
X117937Y145260D02*
D03*
Y152740D02*
D03*
X109669Y149000D02*
D03*
X85496Y145260D02*
D03*
Y152740D02*
D03*
X77228Y149000D02*
D03*
X55228Y145260D02*
D03*
Y152740D02*
D03*
X46961Y149000D02*
D03*
D20*
X62260Y193563D02*
D03*
X69740D02*
D03*
X66000Y201831D02*
D03*
D21*
X64209Y185000D02*
D03*
X67791D02*
D03*
X49209Y196500D02*
D03*
X52791D02*
D03*
X78209D02*
D03*
X81791D02*
D03*
D22*
X121000Y113953D02*
D03*
Y108047D02*
D03*
X101000Y114000D02*
D03*
Y108095D02*
D03*
D23*
X84000Y75748D02*
D03*
Y73779D02*
D03*
Y71811D02*
D03*
Y69842D02*
D03*
Y67874D02*
D03*
Y65905D02*
D03*
Y63937D02*
D03*
Y61968D02*
D03*
Y60000D02*
D03*
Y58031D02*
D03*
Y56063D02*
D03*
Y54094D02*
D03*
X51087D02*
D03*
Y56063D02*
D03*
Y58031D02*
D03*
Y60000D02*
D03*
Y61968D02*
D03*
Y63937D02*
D03*
Y65905D02*
D03*
Y67874D02*
D03*
Y69842D02*
D03*
Y71811D02*
D03*
Y73779D02*
D03*
Y75748D02*
D03*
D24*
X78370Y48465D02*
D03*
X76402D02*
D03*
X74433D02*
D03*
X72465D02*
D03*
X70496D02*
D03*
X68528D02*
D03*
X66559D02*
D03*
X64591D02*
D03*
X62622D02*
D03*
X60654D02*
D03*
X58685D02*
D03*
X56717D02*
D03*
Y81378D02*
D03*
X58685D02*
D03*
X60654D02*
D03*
X62622D02*
D03*
X64591D02*
D03*
X66559D02*
D03*
X68528D02*
D03*
X70496D02*
D03*
X72465D02*
D03*
X74433D02*
D03*
X76402D02*
D03*
X78370D02*
D03*
D25*
X78520Y94071D02*
D03*
X73480D02*
D03*
Y97929D02*
D03*
X78520D02*
D03*
D26*
X134972Y17000D02*
D03*
D27*
X109028Y7984D02*
D03*
Y17000D02*
D03*
D28*
Y26016D02*
D03*
D48*
X73000Y170000D02*
X117677D01*
X111146Y28134D02*
Y35000D01*
X49000Y51000D02*
Y51957D01*
X51087Y54043D02*
Y54094D01*
X49000Y51957D02*
X51087Y54043D01*
X65000Y120000D02*
X85000Y140000D01*
Y144764D01*
Y134000D02*
Y140000D01*
X16646Y87354D02*
X24000Y80000D01*
X46000D01*
X16646Y87354D02*
Y95500D01*
X85000Y144764D02*
X85496Y145260D01*
X58000Y24500D02*
X60000Y22500D01*
X58000Y24500D02*
Y29291D01*
X16646Y95500D02*
Y103000D01*
X110654Y27382D02*
Y27643D01*
X111146Y28134D01*
X109028Y26016D02*
X109288D01*
X110654Y27382D01*
X103492Y19854D02*
X107401Y23763D01*
Y24649D02*
X108767Y26016D01*
X103000Y19854D02*
X103492D01*
X107401Y23763D02*
Y24649D01*
X108767Y26016D02*
X109028D01*
X111709Y113709D02*
X113000Y115000D01*
X107000Y113709D02*
X111709D01*
X127000D02*
X131709D01*
X56500Y146531D02*
X60000Y150031D01*
X33362Y19000D02*
X35508Y21146D01*
X26000Y19000D02*
X33362D01*
X35508Y21146D02*
X36000D01*
X6492Y20000D02*
X7492Y19000D01*
X16000D01*
X6000Y20000D02*
X6492D01*
X121047Y108000D02*
X127000D01*
X121000Y108047D02*
X121047Y108000D01*
X101094D02*
X107000D01*
X101000Y108095D02*
X101094Y108000D01*
X6000Y174000D02*
X7468Y175469D01*
X27468D02*
X35000Y183000D01*
X7468Y175469D02*
X27468D01*
X117677Y170000D02*
X117937Y169740D01*
X55228D02*
X55488Y170000D01*
X73000D01*
X77146Y215854D02*
X79000Y214000D01*
X73000Y215854D02*
X77146D01*
X11439Y95500D02*
X16646D01*
X7500Y98000D02*
X8939D01*
X11439Y95500D01*
X12000Y136000D02*
X15000D01*
X6000Y142000D02*
X12000Y136000D01*
X46000Y212000D02*
X48000Y210000D01*
X58000D01*
X66000D01*
X66073Y210073D01*
X72927D02*
X73000Y210146D01*
X66073Y210073D02*
X72927D01*
X58894Y190000D02*
X62260Y193366D01*
Y193563D01*
X57000Y190000D02*
X58894D01*
X58122Y201831D02*
X66000D01*
X52791Y196500D02*
Y196716D01*
X53256Y197181D01*
X53472D01*
X58122Y201831D01*
X78209Y196283D02*
Y196500D01*
X69740Y193563D02*
X75488D01*
X78209Y196283D01*
X108398Y150075D02*
X109472Y149000D01*
X109669D01*
X108398Y150075D02*
Y150272D01*
X106472Y152197D02*
X108398Y150272D01*
X106472Y152197D02*
Y163000D01*
X109472Y166000D02*
X109669D01*
X101854Y163000D02*
X106472D01*
X109472Y166000D01*
X89653Y158362D02*
X92000D01*
X85559Y162260D02*
X85756D01*
X89653Y158362D01*
X96146Y162508D02*
Y163000D01*
X92000Y158362D02*
X96146Y162508D01*
X92000Y154414D02*
Y158362D01*
X99476Y155000D02*
X99622Y154854D01*
X92586Y155000D02*
X99476D01*
X92000Y154414D02*
X92586Y155000D01*
X92000Y151764D02*
Y154414D01*
X86768Y146335D02*
Y146531D01*
X92000Y151764D01*
X85496Y145260D02*
X85693D01*
X86768Y146335D01*
X75957Y150075D02*
Y150272D01*
X74094Y152134D02*
X75957Y150272D01*
X74094Y152134D02*
Y163000D01*
X77031Y149000D02*
X77228D01*
X75957Y150075D02*
X77031Y149000D01*
X70146Y163000D02*
X74094D01*
X77095Y166000D02*
X77291D01*
X74094Y163000D02*
X77095Y166000D01*
X61000Y156488D02*
X64437Y159925D01*
Y163000D01*
X56500Y160988D02*
X61000Y156488D01*
Y154414D02*
Y156488D01*
X55228Y162260D02*
X55425D01*
X56500Y161185D01*
Y160988D02*
Y161185D01*
X66854Y155000D02*
X67000Y154854D01*
X61000Y151031D02*
Y154414D01*
X61586Y155000D02*
X66854D01*
X61000Y154414D02*
X61586Y155000D01*
X56500Y146335D02*
Y146531D01*
X55228Y145260D02*
X55425D01*
X56500Y146335D01*
X99000Y189000D02*
X104145D01*
X86000D02*
X99000D01*
X95000Y193000D02*
X99000Y189000D01*
X95000Y193000D02*
Y204000D01*
X82000Y185000D02*
X86000Y189000D01*
X67791Y185000D02*
X82000D01*
X81791Y193209D02*
X86000Y189000D01*
X81791Y193209D02*
Y196500D01*
X104145Y189000D02*
X126000Y167145D01*
Y165000D02*
Y167145D01*
Y153323D02*
Y165000D01*
X117937Y162260D02*
X123260D01*
X126000Y165000D01*
X117937Y145260D02*
X118134D01*
X119209Y146335D01*
Y146531D01*
X126000Y153323D01*
X45414Y158000D02*
X46961Y159546D01*
Y166000D01*
X45414Y158000D02*
X46961Y156454D01*
Y149000D02*
Y156454D01*
X43854Y158000D02*
X45414D01*
X38854Y162508D02*
X39634Y161728D01*
X40126D01*
X38854Y162508D02*
Y163000D01*
X40126Y161728D02*
X43854Y158000D01*
X36853Y158801D02*
X40560Y155094D01*
X33146Y162508D02*
X36853Y158801D01*
X28000Y170000D02*
X42000Y184000D01*
X28000Y160000D02*
Y170000D01*
X29199Y158801D02*
X36853D01*
X28000Y160000D02*
X29199Y158801D01*
X37000Y134000D02*
X46000D01*
X48000Y136000D01*
X42000Y184000D02*
Y189075D01*
X63528Y184319D02*
X63744D01*
X63209Y184000D02*
X63528Y184319D01*
X42000Y184000D02*
X63209D01*
X64209Y184783D02*
Y185000D01*
X63744Y184319D02*
X64209Y184783D01*
X49209Y196283D02*
Y196500D01*
X42000Y189075D02*
X49209Y196283D01*
X40560Y154854D02*
Y155094D01*
X33146Y162508D02*
Y163000D01*
X40560Y154854D02*
X42000Y153414D01*
Y142000D02*
Y153414D01*
X36000Y154854D02*
X40560D01*
X48000Y130000D02*
Y136000D01*
X42000Y142000D02*
X48000Y136000D01*
Y130000D02*
X58000Y120000D01*
Y88000D02*
Y120000D01*
X70500Y87000D02*
Y91091D01*
X73283Y94071D02*
X73480D01*
X72248Y93035D02*
X73283Y94071D01*
X72248Y92839D02*
Y93035D01*
X70500Y91091D02*
X72248Y92839D01*
D49*
X65567Y97929D02*
X73480D01*
X35073Y51073D02*
X35146Y51146D01*
X35000Y51000D02*
X35073Y51073D01*
X22354Y95500D02*
X37500D01*
X47000Y105000D01*
X62622Y90216D02*
X63552Y91146D01*
X64000D01*
X62622Y81378D02*
Y90216D01*
X64591Y85590D02*
X66000Y87000D01*
X64591Y81378D02*
Y85590D01*
X89319Y46019D02*
X93300Y50000D01*
X101000D01*
X81618Y46019D02*
X89319D01*
X81618D02*
X85146Y42492D01*
Y42000D02*
Y42492D01*
X78370Y46220D02*
Y48465D01*
Y46220D02*
X78571Y46019D01*
X81618D01*
X52500Y87500D02*
Y117500D01*
X46000Y80000D02*
X52204D01*
X56204Y76000D01*
X52500Y87500D02*
X53850Y86150D01*
X58618Y81445D02*
X58685Y81378D01*
X58618Y81445D02*
Y84847D01*
X57314Y86150D02*
X58618Y84847D01*
X53850Y86150D02*
X57314D01*
X91784Y43422D02*
X92276D01*
X93854Y45000D01*
X90854Y42000D02*
Y42492D01*
X91784Y43422D01*
X93854Y45000D02*
X95000D01*
X22354Y103000D02*
Y103492D01*
X17846Y108000D02*
X22354Y103492D01*
X7500Y108000D02*
X17846D01*
X76402Y53402D02*
X77000Y54000D01*
X76402Y48465D02*
Y53402D01*
X51019Y55996D02*
X51087Y56063D01*
X47618Y55996D02*
X51019D01*
X45000Y53378D02*
X47618Y55996D01*
X45000Y52000D02*
Y53378D01*
X35146Y51146D02*
Y57000D01*
X47063Y63937D02*
X51087D01*
X29000Y61590D02*
X29410Y62000D01*
X51055D01*
X42000Y69000D02*
X47063Y63937D01*
X51055Y62000D02*
X51087Y61968D01*
X45000Y68591D02*
X47618Y65973D01*
X51019D01*
X45000Y68591D02*
Y69000D01*
X64492Y96854D02*
X65567Y97929D01*
X64000Y96854D02*
X64492D01*
X97854Y71146D02*
X98000Y71000D01*
X93000Y71146D02*
X97854D01*
X84000Y73779D02*
X89874D01*
X92508Y71146D01*
X93000D01*
X108146Y73000D02*
X118000D01*
X108000Y73146D02*
X108146Y73000D01*
X131709Y113709D02*
X132000Y114000D01*
X119000Y153803D02*
Y156000D01*
X117937Y152740D02*
X119000Y153803D01*
X95000Y146000D02*
X95984D01*
X99130Y149146D02*
X99622D01*
X95984Y146000D02*
X99130Y149146D01*
X85693Y152740D02*
X87953Y155000D01*
X85496Y152740D02*
X85693D01*
X87953Y155000D02*
X89000D01*
X67492Y149146D02*
X71000Y145638D01*
Y145000D02*
Y145638D01*
X67000Y149146D02*
X67492D01*
X60000Y150031D02*
X61000Y151031D01*
X60000Y134000D02*
Y150031D01*
X55228Y152740D02*
Y156772D01*
X55000Y157000D02*
X55228Y156772D01*
X36000Y143000D02*
X37000Y142000D01*
X36000Y143000D02*
Y149146D01*
X58000Y215709D02*
X61709D01*
X63000Y217000D01*
X67968Y58031D02*
X84000D01*
X67000Y59000D02*
X67968Y58031D01*
X51019Y65973D02*
X51087Y65905D01*
X25177Y83823D02*
X56515D01*
X20000Y89000D02*
X25177Y83823D01*
X56515D02*
X56717Y83622D01*
Y81378D02*
Y83622D01*
X8000Y49000D02*
X30811Y71811D01*
X51087D01*
X8000Y59000D02*
X22780Y73779D01*
X51087D01*
X14748Y75748D02*
X51087D01*
X8000Y69000D02*
X14748Y75748D01*
X29000Y48709D02*
Y61590D01*
X7422Y26638D02*
Y27130D01*
X29000Y48709D01*
X6000Y25709D02*
X6492D01*
X7422Y26638D01*
X70756Y67874D02*
X84000D01*
X36000Y33118D02*
X70756Y67874D01*
X36000Y26854D02*
Y33118D01*
X79622Y88000D02*
X95047D01*
X76402Y81378D02*
X76469Y81445D01*
Y84847D01*
X79622Y88000D01*
X95047D02*
X121000Y113953D01*
X74433Y42567D02*
X80000Y37000D01*
X74433Y42567D02*
Y48465D01*
X80000Y37000D02*
X102000D01*
X107000Y42000D01*
X115228D01*
X122509Y49281D01*
Y58491D01*
X118000Y63000D02*
X122509Y58491D01*
X84000Y54094D02*
X116905D01*
X118000Y53000D01*
X56204Y76000D02*
X64582D01*
X66492Y77909D02*
Y81311D01*
X66559Y81378D01*
X64582Y76000D02*
X66492Y77909D01*
X58000Y88000D02*
X60654Y85347D01*
Y81378D02*
Y85347D01*
X70496Y81378D02*
X70500Y81382D01*
Y87000D01*
D50*
X72854Y29000D02*
X73000Y29146D01*
X70252Y29000D02*
X72854D01*
X69998Y23379D02*
Y28745D01*
X70252Y29000D01*
X69998Y23379D02*
X70467Y22910D01*
Y16609D02*
Y22910D01*
X69063Y22992D02*
Y28745D01*
X68808Y29000D02*
X69063Y28745D01*
X66000Y29000D02*
X68808D01*
X70722Y16354D02*
X73937D01*
X69278D02*
X69533Y16609D01*
X66063Y16354D02*
X69278D01*
X69063Y22992D02*
X69533Y22523D01*
Y16609D02*
Y22523D01*
X70467Y16609D02*
X70722Y16354D01*
X58000Y35000D02*
X65709D01*
X66000Y34709D01*
X72482Y52982D02*
X72500Y53000D01*
X72482Y48482D02*
Y52982D01*
X72465Y48465D02*
X72482Y48482D01*
X68783Y41750D02*
Y42497D01*
X69033Y38112D02*
Y41500D01*
X69002Y38082D02*
X69033Y38112D01*
X69002Y35109D02*
Y38082D01*
X68783Y41750D02*
X69033Y41500D01*
X68748Y34854D02*
X69002Y35109D01*
X68347Y42752D02*
X68528D01*
X68783Y42497D01*
X68099Y43000D02*
X68347Y42752D01*
X68000Y43000D02*
X68099D01*
X66146Y34854D02*
X68748D01*
X66000Y34709D02*
X66146Y34854D01*
X70498Y48467D02*
Y52998D01*
X70500Y53000D01*
X70496Y48465D02*
X70498Y48467D01*
X70401Y43000D02*
X70500D01*
X70192Y34854D02*
X73000D01*
X70153Y42752D02*
X70401Y43000D01*
X69972Y42752D02*
X70153D01*
X69717Y42497D02*
X69972Y42752D01*
X69717Y42137D02*
Y42497D01*
X69967Y37725D02*
Y41887D01*
X69937Y37695D02*
X69967Y37725D01*
X69937Y35109D02*
X70192Y34854D01*
X69717Y42137D02*
X69967Y41887D01*
X69937Y35109D02*
Y37695D01*
D51*
X102016Y7984D02*
X109028D01*
X102000Y8000D02*
X102016Y7984D01*
X103492Y14146D02*
X108397Y9240D01*
Y8614D02*
Y9240D01*
X103000Y14146D02*
X103492D01*
X108397Y8614D02*
X109028Y7984D01*
X102508Y14146D02*
X103000D01*
X83780Y16354D02*
X100299D01*
X102508Y14146D01*
D52*
X56221Y16354D02*
D03*
X66063D02*
D03*
X73937D02*
D03*
D53*
X83780D02*
D03*
D54*
X93032Y7378D02*
D03*
X46968D02*
D03*
D55*
X79055Y6000D02*
D03*
X60945D02*
D03*
D56*
X16000Y29000D02*
D03*
X26000D02*
D03*
X16000Y19000D02*
D03*
X26000D02*
D03*
X16000Y9000D02*
D03*
X8000Y79000D02*
D03*
Y69000D02*
D03*
Y59000D02*
D03*
Y222000D02*
D03*
Y212000D02*
D03*
Y202000D02*
D03*
X118000Y83000D02*
D03*
Y73000D02*
D03*
Y63000D02*
D03*
X7500Y98000D02*
D03*
D57*
X26000Y9000D02*
D03*
X8000Y49000D02*
D03*
Y192000D02*
D03*
X118000Y53000D02*
D03*
X7500Y108000D02*
D03*
D58*
X69000Y105000D02*
D03*
X47000D02*
D03*
X101000Y58000D02*
D03*
Y50000D02*
D03*
X65000Y120000D02*
D03*
X52500Y117500D02*
D03*
X60000Y22500D02*
D03*
X95000Y45000D02*
D03*
X77000Y54000D02*
D03*
X111000Y31000D02*
D03*
X45000Y52000D02*
D03*
X35073Y51073D02*
D03*
X66000Y87000D02*
D03*
X69000Y98000D02*
D03*
X98000Y71000D02*
D03*
X113000Y115000D02*
D03*
X132000Y114000D02*
D03*
X119000Y156000D02*
D03*
X95000Y146000D02*
D03*
X89000Y155000D02*
D03*
X71000Y145000D02*
D03*
X55000Y157000D02*
D03*
X37000Y142000D02*
D03*
X63000Y217000D02*
D03*
X42000Y69000D02*
D03*
X45000D02*
D03*
X67000Y59000D02*
D03*
X20000Y89000D02*
D03*
X35000Y183000D02*
D03*
X79000Y214000D02*
D03*
X15000Y136000D02*
D03*
X66000Y210000D02*
D03*
X57000Y190000D02*
D03*
D59*
X73000Y170000D02*
D03*
X102016Y7984D02*
D03*
D60*
X72500Y53000D02*
D03*
X70500D02*
D03*
Y43000D02*
D03*
X68000D02*
D03*
M02*
