M48
;Layer_Color=9474304
;FILE_FORMAT=2:5
INCH,LZ
;TYPE=PLATED
T01F00S00C0.00400
T02F00S00C0.00800
T03F00S00C0.01000
T04F00S00C0.03622
T06F00S00C0.04213
;TYPE=NON_PLATED
T07F00S00C0.04331
%
T01
X0068Y0043
X00705
Y0053
X00725
T02
X0035073Y0051073
X0045Y0052
X0077Y0054
X0095Y0045
X0101Y005
X0111Y0031
X006Y00225
X0067Y0059
X0066Y0087
X0069Y0098
Y0105
X0065Y012
X0071Y0145
X0095Y0146
X0089Y0155
X0119Y0156
X0113Y0115
X0132Y0114
X0098Y0071
X0101Y0058
X0057Y019
X0066Y021
X0035Y0183
X0037Y0142
X0015Y0136
X002Y0089
X0042Y0069
X0045
X0047Y0105
X00525Y01175
X0055Y0157
X0063Y0217
X0079Y0214
T03
X0102016Y0007984
X0073Y017
T04
X0056221Y0016354
X0066063
X0073937
X008378
T06
X0016Y0009
Y0019
Y0029
X0026
Y0019
Y0009
X0008Y0049
X0118Y0053
Y0063
Y0073
Y0083
X0008Y0079
Y0069
Y0059
X00075Y0098
Y0108
X0008Y0192
Y0202
Y0212
Y0222
T07
X0060945Y0006
X0079055
M30
